<mxfile host="app.diagrams.net" agent="Mozilla/5.0 (X11; Linux x86_64) AppleWebKit/537.36 (KHTML, like Gecko) Chrome/131.0.0.0 Safari/537.36" version="24.8.6">
  <diagram name="Page-1" id="Lyzm024iycyiwe9EKYkh">
    <mxGraphModel dx="1247" dy="695" grid="1" gridSize="10" guides="1" tooltips="1" connect="1" arrows="1" fold="1" page="1" pageScale="1" pageWidth="827" pageHeight="1169" math="0" shadow="0">
      <root>
        <mxCell id="0" />
        <mxCell id="1" parent="0" />
        <mxCell id="q8f1wnlti2UKm0CjRqSI-2" value="Invoice Generator" style="ellipse;whiteSpace=wrap;html=1;" parent="1" vertex="1">
          <mxGeometry x="354" y="350" width="120" height="80" as="geometry" />
        </mxCell>
        <mxCell id="q8f1wnlti2UKm0CjRqSI-3" value="Accountant" style="rounded=0;whiteSpace=wrap;html=1;" parent="1" vertex="1">
          <mxGeometry x="534" y="360" width="120" height="60" as="geometry" />
        </mxCell>
        <mxCell id="q8f1wnlti2UKm0CjRqSI-4" value="Organisation" style="rounded=0;whiteSpace=wrap;html=1;" parent="1" vertex="1">
          <mxGeometry x="174" y="360" width="120" height="60" as="geometry" />
        </mxCell>
        <mxCell id="q8f1wnlti2UKm0CjRqSI-5" value="Admin" style="rounded=0;whiteSpace=wrap;html=1;" parent="1" vertex="1">
          <mxGeometry x="354" y="237" width="120" height="60" as="geometry" />
        </mxCell>
        <mxCell id="q8f1wnlti2UKm0CjRqSI-7" value="" style="endArrow=none;html=1;rounded=0;entryX=0.029;entryY=0.692;entryDx=0;entryDy=0;entryPerimeter=0;exitX=0;exitY=0.5;exitDx=0;exitDy=0;" parent="1" source="T4crK0wRB-NICKtuuCVh-29" target="q8f1wnlti2UKm0CjRqSI-2" edge="1">
          <mxGeometry width="50" height="50" relative="1" as="geometry">
            <mxPoint x="310" y="400" as="sourcePoint" />
            <mxPoint x="304" y="400" as="targetPoint" />
          </mxGeometry>
        </mxCell>
        <mxCell id="q8f1wnlti2UKm0CjRqSI-10" value="&lt;font style=&quot;font-size: 5px;&quot;&gt;Response&lt;/font&gt;" style="edgeLabel;html=1;align=center;verticalAlign=middle;resizable=0;points=[];" parent="q8f1wnlti2UKm0CjRqSI-7" vertex="1" connectable="0">
          <mxGeometry x="-0.0558" relative="1" as="geometry">
            <mxPoint y="-3" as="offset" />
          </mxGeometry>
        </mxCell>
        <mxCell id="q8f1wnlti2UKm0CjRqSI-12" value="" style="endArrow=none;html=1;rounded=0;entryX=0.016;entryY=0.621;entryDx=0;entryDy=0;entryPerimeter=0;exitX=0.966;exitY=0.69;exitDx=0;exitDy=0;exitPerimeter=0;" parent="1" edge="1" source="q8f1wnlti2UKm0CjRqSI-2">
          <mxGeometry width="50" height="50" relative="1" as="geometry">
            <mxPoint x="500" y="400" as="sourcePoint" />
            <mxPoint x="534" y="404.9" as="targetPoint" />
          </mxGeometry>
        </mxCell>
        <mxCell id="q8f1wnlti2UKm0CjRqSI-13" value="&lt;font style=&quot;font-size: 5px;&quot;&gt;Response&lt;/font&gt;" style="edgeLabel;html=1;align=center;verticalAlign=middle;resizable=0;points=[];" parent="q8f1wnlti2UKm0CjRqSI-12" vertex="1" connectable="0">
          <mxGeometry x="-0.0558" relative="1" as="geometry">
            <mxPoint y="-3" as="offset" />
          </mxGeometry>
        </mxCell>
        <mxCell id="q8f1wnlti2UKm0CjRqSI-14" value="" style="endArrow=none;html=1;rounded=0;exitX=0.967;exitY=0.312;exitDx=0;exitDy=0;exitPerimeter=0;" parent="1" edge="1" source="q8f1wnlti2UKm0CjRqSI-2">
          <mxGeometry width="50" height="50" relative="1" as="geometry">
            <mxPoint x="464" y="374.96000000000004" as="sourcePoint" />
            <mxPoint x="524" y="375.04" as="targetPoint" />
          </mxGeometry>
        </mxCell>
        <mxCell id="q8f1wnlti2UKm0CjRqSI-15" value="&lt;font style=&quot;font-size: 5px;&quot;&gt;Request&lt;/font&gt;" style="edgeLabel;html=1;align=center;verticalAlign=middle;resizable=0;points=[];" parent="q8f1wnlti2UKm0CjRqSI-14" vertex="1" connectable="0">
          <mxGeometry x="-0.0053" relative="1" as="geometry">
            <mxPoint y="-2" as="offset" />
          </mxGeometry>
        </mxCell>
        <mxCell id="q8f1wnlti2UKm0CjRqSI-18" value="" style="endArrow=none;html=1;rounded=0;exitX=0.375;exitY=-0.017;exitDx=0;exitDy=0;exitPerimeter=0;entryX=0.374;entryY=1.009;entryDx=0;entryDy=0;entryPerimeter=0;" parent="1" edge="1">
          <mxGeometry width="50" height="50" relative="1" as="geometry">
            <mxPoint x="389.92" y="348.09999999999997" as="sourcePoint" />
            <mxPoint x="389.7999999999999" y="301.99999999999994" as="targetPoint" />
          </mxGeometry>
        </mxCell>
        <mxCell id="q8f1wnlti2UKm0CjRqSI-19" value="&lt;font style=&quot;font-size: 5px;&quot;&gt;Request&lt;/font&gt;" style="edgeLabel;html=1;align=center;verticalAlign=middle;resizable=0;points=[];" parent="q8f1wnlti2UKm0CjRqSI-18" vertex="1" connectable="0">
          <mxGeometry x="-0.0053" relative="1" as="geometry">
            <mxPoint as="offset" />
          </mxGeometry>
        </mxCell>
        <mxCell id="q8f1wnlti2UKm0CjRqSI-20" value="&lt;font style=&quot;font-size: 28px;&quot;&gt;&lt;b&gt;Data Flow Diagram&lt;/b&gt;&lt;/font&gt;" style="text;html=1;align=center;verticalAlign=middle;resizable=0;points=[];autosize=1;strokeColor=none;fillColor=none;" parent="1" vertex="1">
          <mxGeometry x="284" y="60" width="260" height="50" as="geometry" />
        </mxCell>
        <mxCell id="q8f1wnlti2UKm0CjRqSI-21" value="&lt;font style=&quot;font-size: 13px;&quot;&gt;Level 0&lt;/font&gt;" style="text;html=1;align=center;verticalAlign=middle;resizable=0;points=[];autosize=1;strokeColor=none;fillColor=none;" parent="1" vertex="1">
          <mxGeometry x="114" y="210" width="60" height="30" as="geometry" />
        </mxCell>
        <mxCell id="T4crK0wRB-NICKtuuCVh-19" value="" style="whiteSpace=wrap;html=1;" vertex="1" parent="1">
          <mxGeometry x="524" y="370" width="20" height="10" as="geometry" />
        </mxCell>
        <mxCell id="T4crK0wRB-NICKtuuCVh-20" value="" style="whiteSpace=wrap;html=1;" vertex="1" parent="1">
          <mxGeometry x="524" y="400" width="20" height="10" as="geometry" />
        </mxCell>
        <mxCell id="T4crK0wRB-NICKtuuCVh-22" value="" style="endArrow=none;html=1;rounded=0;exitX=0.997;exitY=0.667;exitDx=0;exitDy=0;exitPerimeter=0;" edge="1" parent="1" target="T4crK0wRB-NICKtuuCVh-21">
          <mxGeometry width="50" height="50" relative="1" as="geometry">
            <mxPoint x="294" y="374.92" as="sourcePoint" />
            <mxPoint x="354" y="375" as="targetPoint" />
          </mxGeometry>
        </mxCell>
        <mxCell id="T4crK0wRB-NICKtuuCVh-23" value="&lt;font style=&quot;font-size: 5px;&quot;&gt;Request&lt;/font&gt;" style="edgeLabel;html=1;align=center;verticalAlign=middle;resizable=0;points=[];" vertex="1" connectable="0" parent="T4crK0wRB-NICKtuuCVh-22">
          <mxGeometry x="-0.0053" relative="1" as="geometry">
            <mxPoint x="9" y="-2" as="offset" />
          </mxGeometry>
        </mxCell>
        <mxCell id="T4crK0wRB-NICKtuuCVh-21" value="" style="triangle;whiteSpace=wrap;html=1;" vertex="1" parent="1">
          <mxGeometry x="350" y="370" width="10" height="10" as="geometry" />
        </mxCell>
        <mxCell id="T4crK0wRB-NICKtuuCVh-29" value="" style="triangle;whiteSpace=wrap;html=1;direction=west;" vertex="1" parent="1">
          <mxGeometry x="309" y="400" width="10" height="10" as="geometry" />
        </mxCell>
        <mxCell id="T4crK0wRB-NICKtuuCVh-36" value="" style="whiteSpace=wrap;html=1;" vertex="1" parent="1">
          <mxGeometry x="289" y="370" width="20" height="10" as="geometry" />
        </mxCell>
        <mxCell id="T4crK0wRB-NICKtuuCVh-37" value="" style="whiteSpace=wrap;html=1;" vertex="1" parent="1">
          <mxGeometry x="289" y="400" width="20" height="10" as="geometry" />
        </mxCell>
        <mxCell id="T4crK0wRB-NICKtuuCVh-38" value="" style="triangle;whiteSpace=wrap;html=1;" vertex="1" parent="1">
          <mxGeometry x="514" y="400" width="10" height="10" as="geometry" />
        </mxCell>
        <mxCell id="T4crK0wRB-NICKtuuCVh-39" value="" style="triangle;whiteSpace=wrap;html=1;direction=west;" vertex="1" parent="1">
          <mxGeometry x="474" y="370" width="10" height="10" as="geometry" />
        </mxCell>
        <mxCell id="T4crK0wRB-NICKtuuCVh-40" value="" style="whiteSpace=wrap;html=1;" vertex="1" parent="1">
          <mxGeometry x="430" y="297" width="20" height="10" as="geometry" />
        </mxCell>
        <mxCell id="T4crK0wRB-NICKtuuCVh-41" value="" style="whiteSpace=wrap;html=1;" vertex="1" parent="1">
          <mxGeometry x="380" y="297" width="20" height="10" as="geometry" />
        </mxCell>
        <mxCell id="T4crK0wRB-NICKtuuCVh-42" value="" style="triangle;whiteSpace=wrap;html=1;direction=south;" vertex="1" parent="1">
          <mxGeometry x="385" y="340" width="10" height="10" as="geometry" />
        </mxCell>
        <mxCell id="T4crK0wRB-NICKtuuCVh-50" value="" style="endArrow=none;html=1;rounded=0;exitX=0.715;exitY=0.049;exitDx=0;exitDy=0;exitPerimeter=0;entryX=-0.169;entryY=0.535;entryDx=0;entryDy=0;entryPerimeter=0;" edge="1" parent="1" source="q8f1wnlti2UKm0CjRqSI-2" target="T4crK0wRB-NICKtuuCVh-45">
          <mxGeometry width="50" height="50" relative="1" as="geometry">
            <mxPoint x="440" y="354" as="sourcePoint" />
            <mxPoint x="439.80000000000007" y="304.14" as="targetPoint" />
          </mxGeometry>
        </mxCell>
        <mxCell id="T4crK0wRB-NICKtuuCVh-51" value="&lt;font style=&quot;font-size: 5px;&quot;&gt;Response&lt;/font&gt;" style="edgeLabel;html=1;align=center;verticalAlign=middle;resizable=0;points=[];" vertex="1" connectable="0" parent="T4crK0wRB-NICKtuuCVh-50">
          <mxGeometry x="-0.0558" relative="1" as="geometry">
            <mxPoint y="-10" as="offset" />
          </mxGeometry>
        </mxCell>
        <mxCell id="T4crK0wRB-NICKtuuCVh-45" value="" style="triangle;whiteSpace=wrap;html=1;direction=north;" vertex="1" parent="1">
          <mxGeometry x="435" y="307" width="10" height="10" as="geometry" />
        </mxCell>
        <mxCell id="T4crK0wRB-NICKtuuCVh-60" style="edgeStyle=orthogonalEdgeStyle;rounded=0;orthogonalLoop=1;jettySize=auto;html=1;exitX=1;exitY=0.25;exitDx=0;exitDy=0;entryX=0.05;entryY=0.3;entryDx=0;entryDy=0;entryPerimeter=0;" edge="1" parent="1" source="T4crK0wRB-NICKtuuCVh-58" target="T4crK0wRB-NICKtuuCVh-65">
          <mxGeometry relative="1" as="geometry">
            <mxPoint x="415.5" y="601.7142857142858" as="targetPoint" />
            <mxPoint x="345.5" y="601.5" as="sourcePoint" />
            <Array as="points">
              <mxPoint x="380.5" y="602" />
            </Array>
          </mxGeometry>
        </mxCell>
        <mxCell id="T4crK0wRB-NICKtuuCVh-67" value="&lt;font style=&quot;font-size: 9px;&quot;&gt;Login Req&lt;/font&gt;" style="edgeLabel;html=1;align=center;verticalAlign=middle;resizable=0;points=[];" vertex="1" connectable="0" parent="T4crK0wRB-NICKtuuCVh-60">
          <mxGeometry x="-0.2342" relative="1" as="geometry">
            <mxPoint y="-1" as="offset" />
          </mxGeometry>
        </mxCell>
        <mxCell id="T4crK0wRB-NICKtuuCVh-58" value="&lt;font style=&quot;font-size: 14px;&quot;&gt;Admin&lt;/font&gt;" style="rounded=0;whiteSpace=wrap;html=1;" vertex="1" parent="1">
          <mxGeometry x="191.5" y="589" width="150" height="50" as="geometry" />
        </mxCell>
        <mxCell id="T4crK0wRB-NICKtuuCVh-65" value="Login" style="ellipse;whiteSpace=wrap;html=1;" vertex="1" parent="1">
          <mxGeometry x="428.5" y="584" width="100" height="60" as="geometry" />
        </mxCell>
        <mxCell id="T4crK0wRB-NICKtuuCVh-66" value="" style="endArrow=classic;html=1;rounded=0;exitX=0.042;exitY=0.707;exitDx=0;exitDy=0;exitPerimeter=0;entryX=1;entryY=0.75;entryDx=0;entryDy=0;" edge="1" parent="1" source="T4crK0wRB-NICKtuuCVh-65" target="T4crK0wRB-NICKtuuCVh-58">
          <mxGeometry width="50" height="50" relative="1" as="geometry">
            <mxPoint x="531.5" y="759" as="sourcePoint" />
            <mxPoint x="581.5" y="709" as="targetPoint" />
          </mxGeometry>
        </mxCell>
        <mxCell id="T4crK0wRB-NICKtuuCVh-68" value="&lt;font style=&quot;font-size: 9px;&quot;&gt;Response&lt;/font&gt;" style="edgeLabel;html=1;align=center;verticalAlign=middle;resizable=0;points=[];" vertex="1" connectable="0" parent="T4crK0wRB-NICKtuuCVh-66">
          <mxGeometry x="0.1015" relative="1" as="geometry">
            <mxPoint y="-1" as="offset" />
          </mxGeometry>
        </mxCell>
        <mxCell id="T4crK0wRB-NICKtuuCVh-73" style="edgeStyle=orthogonalEdgeStyle;rounded=0;orthogonalLoop=1;jettySize=auto;html=1;exitX=1;exitY=0.25;exitDx=0;exitDy=0;" edge="1" parent="1">
          <mxGeometry relative="1" as="geometry">
            <mxPoint x="599.5" y="601.3542857142858" as="targetPoint" />
            <mxPoint x="525.5" y="601.64" as="sourcePoint" />
            <Array as="points">
              <mxPoint x="564.5" y="601.64" />
            </Array>
          </mxGeometry>
        </mxCell>
        <mxCell id="T4crK0wRB-NICKtuuCVh-74" value="&lt;font style=&quot;font-size: 9px;&quot;&gt;Request&lt;/font&gt;" style="edgeLabel;html=1;align=center;verticalAlign=middle;resizable=0;points=[];" vertex="1" connectable="0" parent="T4crK0wRB-NICKtuuCVh-73">
          <mxGeometry x="-0.2342" relative="1" as="geometry">
            <mxPoint x="17" y="-1" as="offset" />
          </mxGeometry>
        </mxCell>
        <mxCell id="T4crK0wRB-NICKtuuCVh-75" value="" style="endArrow=classic;html=1;rounded=0;exitX=0.042;exitY=0.707;exitDx=0;exitDy=0;exitPerimeter=0;entryX=1;entryY=0.75;entryDx=0;entryDy=0;" edge="1" parent="1">
          <mxGeometry width="50" height="50" relative="1" as="geometry">
            <mxPoint x="599.5" y="625.64" as="sourcePoint" />
            <mxPoint x="525.5" y="626.64" as="targetPoint" />
          </mxGeometry>
        </mxCell>
        <mxCell id="T4crK0wRB-NICKtuuCVh-76" value="&lt;font style=&quot;font-size: 9px;&quot;&gt;Response&lt;/font&gt;" style="edgeLabel;html=1;align=center;verticalAlign=middle;resizable=0;points=[];" vertex="1" connectable="0" parent="T4crK0wRB-NICKtuuCVh-75">
          <mxGeometry x="0.1015" relative="1" as="geometry">
            <mxPoint y="-1" as="offset" />
          </mxGeometry>
        </mxCell>
        <mxCell id="T4crK0wRB-NICKtuuCVh-77" value="Create Invoice" style="ellipse;whiteSpace=wrap;html=1;" vertex="1" parent="1">
          <mxGeometry x="428.5" y="879" width="100" height="60" as="geometry" />
        </mxCell>
        <mxCell id="T4crK0wRB-NICKtuuCVh-78" value="Read Invoice" style="ellipse;whiteSpace=wrap;html=1;" vertex="1" parent="1">
          <mxGeometry x="428.5" y="979" width="100" height="60" as="geometry" />
        </mxCell>
        <mxCell id="T4crK0wRB-NICKtuuCVh-80" value="Export Invoice" style="ellipse;whiteSpace=wrap;html=1;" vertex="1" parent="1">
          <mxGeometry x="428.5" y="1079" width="100" height="60" as="geometry" />
        </mxCell>
        <mxCell id="T4crK0wRB-NICKtuuCVh-81" value="Mail Invoice" style="ellipse;whiteSpace=wrap;html=1;" vertex="1" parent="1">
          <mxGeometry x="428.5" y="1179" width="100" height="60" as="geometry" />
        </mxCell>
        <mxCell id="T4crK0wRB-NICKtuuCVh-82" value="Add doc/comment&lt;div&gt;to invoice&lt;/div&gt;" style="ellipse;whiteSpace=wrap;html=1;" vertex="1" parent="1">
          <mxGeometry x="428.5" y="1279" width="100" height="60" as="geometry" />
        </mxCell>
        <mxCell id="T4crK0wRB-NICKtuuCVh-83" value="Accept Disputes" style="ellipse;whiteSpace=wrap;html=1;" vertex="1" parent="1">
          <mxGeometry x="428.5" y="1379" width="100" height="60" as="geometry" />
        </mxCell>
        <mxCell id="T4crK0wRB-NICKtuuCVh-84" value="Generate Reports" style="ellipse;whiteSpace=wrap;html=1;" vertex="1" parent="1">
          <mxGeometry x="428.5" y="1479" width="100" height="60" as="geometry" />
        </mxCell>
        <mxCell id="T4crK0wRB-NICKtuuCVh-85" value="Mark Paid/Unpaid" style="ellipse;whiteSpace=wrap;html=1;" vertex="1" parent="1">
          <mxGeometry x="428.5" y="1579" width="100" height="60" as="geometry" />
        </mxCell>
        <mxCell id="T4crK0wRB-NICKtuuCVh-92" style="edgeStyle=orthogonalEdgeStyle;rounded=0;orthogonalLoop=1;jettySize=auto;html=1;entryX=0.896;entryY=0.994;entryDx=0;entryDy=0;entryPerimeter=0;exitX=0;exitY=0.5;exitDx=0;exitDy=0;" edge="1" parent="1" source="T4crK0wRB-NICKtuuCVh-89" target="T4crK0wRB-NICKtuuCVh-58">
          <mxGeometry relative="1" as="geometry">
            <mxPoint x="315.5" y="639" as="targetPoint" />
            <mxPoint x="415.5" y="709" as="sourcePoint" />
            <Array as="points">
              <mxPoint x="325.5" y="709" />
              <mxPoint x="325.5" y="639" />
            </Array>
          </mxGeometry>
        </mxCell>
        <mxCell id="T4crK0wRB-NICKtuuCVh-161" style="edgeStyle=orthogonalEdgeStyle;rounded=0;orthogonalLoop=1;jettySize=auto;html=1;" edge="1" parent="1" source="T4crK0wRB-NICKtuuCVh-89">
          <mxGeometry relative="1" as="geometry">
            <mxPoint x="623.5" y="699" as="targetPoint" />
            <Array as="points">
              <mxPoint x="553.5" y="699" />
              <mxPoint x="553.5" y="699" />
            </Array>
          </mxGeometry>
        </mxCell>
        <mxCell id="T4crK0wRB-NICKtuuCVh-162" style="edgeStyle=orthogonalEdgeStyle;rounded=0;orthogonalLoop=1;jettySize=auto;html=1;entryX=0.991;entryY=0.664;entryDx=0;entryDy=0;entryPerimeter=0;" edge="1" parent="1">
          <mxGeometry relative="1" as="geometry">
            <mxPoint x="525.6" y="718.8399999999999" as="targetPoint" />
            <mxPoint x="621.5" y="719" as="sourcePoint" />
            <Array as="points">
              <mxPoint x="571.5" y="719" />
              <mxPoint x="571.5" y="719" />
            </Array>
          </mxGeometry>
        </mxCell>
        <mxCell id="T4crK0wRB-NICKtuuCVh-89" value="Profile Management" style="ellipse;whiteSpace=wrap;html=1;" vertex="1" parent="1">
          <mxGeometry x="428.5" y="679" width="100" height="60" as="geometry" />
        </mxCell>
        <mxCell id="T4crK0wRB-NICKtuuCVh-90" value="User&lt;div&gt;Management&lt;/div&gt;" style="ellipse;whiteSpace=wrap;html=1;" vertex="1" parent="1">
          <mxGeometry x="428.5" y="779" width="100" height="60" as="geometry" />
        </mxCell>
        <mxCell id="T4crK0wRB-NICKtuuCVh-91" value="" style="endArrow=classic;html=1;rounded=0;exitX=0.932;exitY=1.024;exitDx=0;exitDy=0;exitPerimeter=0;entryX=0.013;entryY=0.378;entryDx=0;entryDy=0;entryPerimeter=0;" edge="1" parent="1" source="T4crK0wRB-NICKtuuCVh-58" target="T4crK0wRB-NICKtuuCVh-89">
          <mxGeometry width="50" height="50" relative="1" as="geometry">
            <mxPoint x="331.15" y="644" as="sourcePoint" />
            <mxPoint x="411.5" y="701.98" as="targetPoint" />
            <Array as="points">
              <mxPoint x="331.5" y="702" />
            </Array>
          </mxGeometry>
        </mxCell>
        <mxCell id="T4crK0wRB-NICKtuuCVh-97" style="edgeStyle=orthogonalEdgeStyle;rounded=0;orthogonalLoop=1;jettySize=auto;html=1;entryX=0.8;entryY=1;entryDx=0;entryDy=0;entryPerimeter=0;exitX=0;exitY=0.667;exitDx=0;exitDy=0;exitPerimeter=0;" edge="1" parent="1" source="T4crK0wRB-NICKtuuCVh-90">
          <mxGeometry relative="1" as="geometry">
            <mxPoint x="295.5" y="639" as="targetPoint" />
            <mxPoint x="415.5" y="819.02" as="sourcePoint" />
          </mxGeometry>
        </mxCell>
        <mxCell id="T4crK0wRB-NICKtuuCVh-98" value="" style="endArrow=classic;html=1;rounded=0;exitX=0.9;exitY=1;exitDx=0;exitDy=0;exitPerimeter=0;entryX=0;entryY=0.5;entryDx=0;entryDy=0;" edge="1" parent="1" target="T4crK0wRB-NICKtuuCVh-90">
          <mxGeometry width="50" height="50" relative="1" as="geometry">
            <mxPoint x="301.5" y="639" as="sourcePoint" />
            <mxPoint x="391.5" y="809" as="targetPoint" />
            <Array as="points">
              <mxPoint x="301.5" y="809" />
            </Array>
          </mxGeometry>
        </mxCell>
        <mxCell id="T4crK0wRB-NICKtuuCVh-102" style="edgeStyle=orthogonalEdgeStyle;rounded=0;orthogonalLoop=1;jettySize=auto;html=1;entryX=0.47;entryY=0.993;entryDx=0;entryDy=0;entryPerimeter=0;exitX=0;exitY=0.5;exitDx=0;exitDy=0;" edge="1" parent="1" source="T4crK0wRB-NICKtuuCVh-77" target="T4crK0wRB-NICKtuuCVh-58">
          <mxGeometry relative="1" as="geometry">
            <mxPoint x="261.5" y="639" as="targetPoint" />
            <mxPoint x="423.5" y="909" as="sourcePoint" />
            <Array as="points">
              <mxPoint x="262.5" y="909" />
            </Array>
          </mxGeometry>
        </mxCell>
        <mxCell id="T4crK0wRB-NICKtuuCVh-152" value="Response" style="edgeLabel;html=1;align=center;verticalAlign=middle;resizable=0;points=[];" vertex="1" connectable="0" parent="T4crK0wRB-NICKtuuCVh-102">
          <mxGeometry x="-0.6142" y="2" relative="1" as="geometry">
            <mxPoint as="offset" />
          </mxGeometry>
        </mxCell>
        <mxCell id="T4crK0wRB-NICKtuuCVh-103" value="" style="endArrow=classic;html=1;rounded=0;entryX=0.033;entryY=0.333;entryDx=0;entryDy=0;entryPerimeter=0;" edge="1" parent="1" target="T4crK0wRB-NICKtuuCVh-77">
          <mxGeometry width="50" height="50" relative="1" as="geometry">
            <mxPoint x="271.5" y="639" as="sourcePoint" />
            <mxPoint x="411.5" y="899" as="targetPoint" />
            <Array as="points">
              <mxPoint x="271.5" y="899" />
            </Array>
          </mxGeometry>
        </mxCell>
        <mxCell id="T4crK0wRB-NICKtuuCVh-153" value="Request" style="edgeLabel;html=1;align=center;verticalAlign=middle;resizable=0;points=[];" vertex="1" connectable="0" parent="T4crK0wRB-NICKtuuCVh-103">
          <mxGeometry x="0.5696" y="2" relative="1" as="geometry">
            <mxPoint as="offset" />
          </mxGeometry>
        </mxCell>
        <mxCell id="T4crK0wRB-NICKtuuCVh-104" style="edgeStyle=orthogonalEdgeStyle;rounded=0;orthogonalLoop=1;jettySize=auto;html=1;entryX=0.272;entryY=1.036;entryDx=0;entryDy=0;entryPerimeter=0;exitX=0.015;exitY=0.656;exitDx=0;exitDy=0;exitPerimeter=0;" edge="1" parent="1" source="T4crK0wRB-NICKtuuCVh-78" target="T4crK0wRB-NICKtuuCVh-58">
          <mxGeometry relative="1" as="geometry">
            <mxPoint x="231.5" y="644" as="targetPoint" />
            <mxPoint x="411.5" y="1019" as="sourcePoint" />
            <Array as="points">
              <mxPoint x="232.5" y="1018" />
              <mxPoint x="232.5" y="644" />
              <mxPoint x="232.5" y="644" />
            </Array>
          </mxGeometry>
        </mxCell>
        <mxCell id="T4crK0wRB-NICKtuuCVh-155" value="Response" style="edgeLabel;html=1;align=center;verticalAlign=middle;resizable=0;points=[];" vertex="1" connectable="0" parent="T4crK0wRB-NICKtuuCVh-104">
          <mxGeometry x="-0.6738" y="2" relative="1" as="geometry">
            <mxPoint as="offset" />
          </mxGeometry>
        </mxCell>
        <mxCell id="T4crK0wRB-NICKtuuCVh-105" value="" style="endArrow=classic;html=1;rounded=0;entryX=-0.002;entryY=0.513;entryDx=0;entryDy=0;entryPerimeter=0;exitX=0.332;exitY=1.028;exitDx=0;exitDy=0;exitPerimeter=0;" edge="1" parent="1" source="T4crK0wRB-NICKtuuCVh-58" target="T4crK0wRB-NICKtuuCVh-78">
          <mxGeometry width="50" height="50" relative="1" as="geometry">
            <mxPoint x="241.5" y="644" as="sourcePoint" />
            <mxPoint x="381.5" y="904" as="targetPoint" />
            <Array as="points">
              <mxPoint x="241.5" y="1009" />
            </Array>
          </mxGeometry>
        </mxCell>
        <mxCell id="T4crK0wRB-NICKtuuCVh-154" value="Request" style="edgeLabel;html=1;align=center;verticalAlign=middle;resizable=0;points=[];" vertex="1" connectable="0" parent="T4crK0wRB-NICKtuuCVh-105">
          <mxGeometry x="0.6622" y="1" relative="1" as="geometry">
            <mxPoint as="offset" />
          </mxGeometry>
        </mxCell>
        <mxCell id="T4crK0wRB-NICKtuuCVh-108" style="edgeStyle=orthogonalEdgeStyle;rounded=0;orthogonalLoop=1;jettySize=auto;html=1;entryX=0.272;entryY=1.036;entryDx=0;entryDy=0;entryPerimeter=0;exitX=0.017;exitY=0.652;exitDx=0;exitDy=0;exitPerimeter=0;" edge="1" parent="1" source="T4crK0wRB-NICKtuuCVh-80">
          <mxGeometry relative="1" as="geometry">
            <mxPoint x="201.5" y="640" as="targetPoint" />
            <mxPoint x="401.5" y="1129" as="sourcePoint" />
            <Array as="points">
              <mxPoint x="201.5" y="1118" />
            </Array>
          </mxGeometry>
        </mxCell>
        <mxCell id="T4crK0wRB-NICKtuuCVh-157" value="Response" style="edgeLabel;html=1;align=center;verticalAlign=middle;resizable=0;points=[];" vertex="1" connectable="0" parent="T4crK0wRB-NICKtuuCVh-108">
          <mxGeometry x="-0.7211" y="2" relative="1" as="geometry">
            <mxPoint as="offset" />
          </mxGeometry>
        </mxCell>
        <mxCell id="T4crK0wRB-NICKtuuCVh-109" value="" style="endArrow=classic;html=1;rounded=0;entryX=0;entryY=0.5;entryDx=0;entryDy=0;exitX=0.332;exitY=1.028;exitDx=0;exitDy=0;exitPerimeter=0;" edge="1" parent="1" target="T4crK0wRB-NICKtuuCVh-80">
          <mxGeometry width="50" height="50" relative="1" as="geometry">
            <mxPoint x="210.5" y="639" as="sourcePoint" />
            <mxPoint x="377.5" y="1009" as="targetPoint" />
            <Array as="points">
              <mxPoint x="210.5" y="1008" />
              <mxPoint x="211.5" y="1109" />
              <mxPoint x="291.5" y="1109" />
            </Array>
          </mxGeometry>
        </mxCell>
        <mxCell id="T4crK0wRB-NICKtuuCVh-156" value="Request" style="edgeLabel;html=1;align=center;verticalAlign=middle;resizable=0;points=[];" vertex="1" connectable="0" parent="T4crK0wRB-NICKtuuCVh-109">
          <mxGeometry x="0.7164" y="1" relative="1" as="geometry">
            <mxPoint as="offset" />
          </mxGeometry>
        </mxCell>
        <mxCell id="T4crK0wRB-NICKtuuCVh-110" style="edgeStyle=orthogonalEdgeStyle;rounded=0;orthogonalLoop=1;jettySize=auto;html=1;exitX=0.028;exitY=0.666;exitDx=0;exitDy=0;exitPerimeter=0;" edge="1" parent="1" source="T4crK0wRB-NICKtuuCVh-81">
          <mxGeometry relative="1" as="geometry">
            <mxPoint x="171.5" y="619" as="targetPoint" />
            <mxPoint x="411.5" y="1219" as="sourcePoint" />
            <Array as="points">
              <mxPoint x="171.5" y="1219" />
            </Array>
          </mxGeometry>
        </mxCell>
        <mxCell id="T4crK0wRB-NICKtuuCVh-159" value="Response" style="edgeLabel;html=1;align=center;verticalAlign=middle;resizable=0;points=[];" vertex="1" connectable="0" parent="T4crK0wRB-NICKtuuCVh-110">
          <mxGeometry x="-0.7682" relative="1" as="geometry">
            <mxPoint as="offset" />
          </mxGeometry>
        </mxCell>
        <mxCell id="T4crK0wRB-NICKtuuCVh-111" value="" style="endArrow=classic;html=1;rounded=0;entryX=0;entryY=0.5;entryDx=0;entryDy=0;" edge="1" parent="1" target="T4crK0wRB-NICKtuuCVh-81">
          <mxGeometry width="50" height="50" relative="1" as="geometry">
            <mxPoint x="181.5" y="629" as="sourcePoint" />
            <mxPoint x="382.5" y="1209" as="targetPoint" />
            <Array as="points">
              <mxPoint x="181.5" y="1108" />
              <mxPoint x="182.5" y="1209" />
              <mxPoint x="262.5" y="1209" />
            </Array>
          </mxGeometry>
        </mxCell>
        <mxCell id="T4crK0wRB-NICKtuuCVh-158" value="Request" style="edgeLabel;html=1;align=center;verticalAlign=middle;resizable=0;points=[];" vertex="1" connectable="0" parent="T4crK0wRB-NICKtuuCVh-111">
          <mxGeometry x="0.7655" y="-1" relative="1" as="geometry">
            <mxPoint y="-3" as="offset" />
          </mxGeometry>
        </mxCell>
        <mxCell id="T4crK0wRB-NICKtuuCVh-116" value="" style="endArrow=none;html=1;rounded=0;entryX=0;entryY=0.8;entryDx=0;entryDy=0;entryPerimeter=0;" edge="1" parent="1" target="T4crK0wRB-NICKtuuCVh-58">
          <mxGeometry width="50" height="50" relative="1" as="geometry">
            <mxPoint x="181.5" y="629" as="sourcePoint" />
            <mxPoint x="171.5" y="609" as="targetPoint" />
          </mxGeometry>
        </mxCell>
        <mxCell id="T4crK0wRB-NICKtuuCVh-121" value="&lt;font style=&quot;font-size: 9px;&quot;&gt;Add,edit,delete details&lt;/font&gt;" style="text;html=1;align=center;verticalAlign=middle;resizable=0;points=[];autosize=1;strokeColor=none;fillColor=none;" vertex="1" parent="1">
          <mxGeometry x="328.5" y="679" width="100" height="30" as="geometry" />
        </mxCell>
        <mxCell id="T4crK0wRB-NICKtuuCVh-122" value="&lt;font style=&quot;font-size: 10px;&quot;&gt;Response&lt;/font&gt;" style="text;html=1;align=center;verticalAlign=middle;resizable=0;points=[];autosize=1;strokeColor=none;fillColor=none;" vertex="1" parent="1">
          <mxGeometry x="346.5" y="699" width="60" height="30" as="geometry" />
        </mxCell>
        <mxCell id="T4crK0wRB-NICKtuuCVh-123" value="&lt;span style=&quot;font-size: 10px;&quot;&gt;Add,update,delete users&lt;/span&gt;" style="text;html=1;align=center;verticalAlign=middle;resizable=0;points=[];autosize=1;strokeColor=none;fillColor=none;" vertex="1" parent="1">
          <mxGeometry x="303.5" y="782" width="120" height="30" as="geometry" />
        </mxCell>
        <mxCell id="T4crK0wRB-NICKtuuCVh-124" value="&lt;font style=&quot;font-size: 10px;&quot;&gt;Response&lt;/font&gt;" style="text;html=1;align=center;verticalAlign=middle;resizable=0;points=[];autosize=1;strokeColor=none;fillColor=none;" vertex="1" parent="1">
          <mxGeometry x="330.5" y="812" width="60" height="30" as="geometry" />
        </mxCell>
        <mxCell id="T4crK0wRB-NICKtuuCVh-125" style="edgeStyle=orthogonalEdgeStyle;rounded=0;orthogonalLoop=1;jettySize=auto;html=1;exitX=1;exitY=0.25;exitDx=0;exitDy=0;entryX=0.05;entryY=0.3;entryDx=0;entryDy=0;entryPerimeter=0;" edge="1" parent="1" source="T4crK0wRB-NICKtuuCVh-127" target="T4crK0wRB-NICKtuuCVh-128">
          <mxGeometry relative="1" as="geometry">
            <mxPoint x="934" y="859.7142857142858" as="targetPoint" />
            <mxPoint x="864" y="859.5" as="sourcePoint" />
            <Array as="points">
              <mxPoint x="899" y="860" />
            </Array>
          </mxGeometry>
        </mxCell>
        <mxCell id="T4crK0wRB-NICKtuuCVh-126" value="&lt;font style=&quot;font-size: 9px;&quot;&gt;Login Req&lt;/font&gt;" style="edgeLabel;html=1;align=center;verticalAlign=middle;resizable=0;points=[];" vertex="1" connectable="0" parent="T4crK0wRB-NICKtuuCVh-125">
          <mxGeometry x="-0.2342" relative="1" as="geometry">
            <mxPoint y="-1" as="offset" />
          </mxGeometry>
        </mxCell>
        <mxCell id="T4crK0wRB-NICKtuuCVh-127" value="&lt;font style=&quot;font-size: 14px;&quot;&gt;Admin&lt;/font&gt;" style="rounded=0;whiteSpace=wrap;html=1;" vertex="1" parent="1">
          <mxGeometry x="710" y="847" width="150" height="50" as="geometry" />
        </mxCell>
        <mxCell id="T4crK0wRB-NICKtuuCVh-128" value="Login" style="ellipse;whiteSpace=wrap;html=1;" vertex="1" parent="1">
          <mxGeometry x="947" y="842" width="100" height="60" as="geometry" />
        </mxCell>
        <mxCell id="T4crK0wRB-NICKtuuCVh-129" value="" style="endArrow=classic;html=1;rounded=0;exitX=0.042;exitY=0.707;exitDx=0;exitDy=0;exitPerimeter=0;entryX=1;entryY=0.75;entryDx=0;entryDy=0;" edge="1" parent="1" source="T4crK0wRB-NICKtuuCVh-128" target="T4crK0wRB-NICKtuuCVh-127">
          <mxGeometry width="50" height="50" relative="1" as="geometry">
            <mxPoint x="1050" y="1017" as="sourcePoint" />
            <mxPoint x="1100" y="967" as="targetPoint" />
          </mxGeometry>
        </mxCell>
        <mxCell id="T4crK0wRB-NICKtuuCVh-130" value="&lt;font style=&quot;font-size: 9px;&quot;&gt;Response&lt;/font&gt;" style="edgeLabel;html=1;align=center;verticalAlign=middle;resizable=0;points=[];" vertex="1" connectable="0" parent="T4crK0wRB-NICKtuuCVh-129">
          <mxGeometry x="0.1015" relative="1" as="geometry">
            <mxPoint y="-1" as="offset" />
          </mxGeometry>
        </mxCell>
        <mxCell id="T4crK0wRB-NICKtuuCVh-131" style="edgeStyle=orthogonalEdgeStyle;rounded=0;orthogonalLoop=1;jettySize=auto;html=1;exitX=1;exitY=0.25;exitDx=0;exitDy=0;" edge="1" parent="1">
          <mxGeometry relative="1" as="geometry">
            <mxPoint x="1118" y="859.3542857142857" as="targetPoint" />
            <mxPoint x="1044" y="859.6399999999999" as="sourcePoint" />
            <Array as="points">
              <mxPoint x="1083" y="859.6399999999999" />
            </Array>
          </mxGeometry>
        </mxCell>
        <mxCell id="T4crK0wRB-NICKtuuCVh-132" value="&lt;font style=&quot;font-size: 9px;&quot;&gt;Request&lt;/font&gt;" style="edgeLabel;html=1;align=center;verticalAlign=middle;resizable=0;points=[];" vertex="1" connectable="0" parent="T4crK0wRB-NICKtuuCVh-131">
          <mxGeometry x="-0.2342" relative="1" as="geometry">
            <mxPoint x="17" y="-1" as="offset" />
          </mxGeometry>
        </mxCell>
        <mxCell id="T4crK0wRB-NICKtuuCVh-133" value="" style="endArrow=classic;html=1;rounded=0;exitX=0.042;exitY=0.707;exitDx=0;exitDy=0;exitPerimeter=0;entryX=1;entryY=0.75;entryDx=0;entryDy=0;" edge="1" parent="1">
          <mxGeometry width="50" height="50" relative="1" as="geometry">
            <mxPoint x="1118" y="883.6399999999999" as="sourcePoint" />
            <mxPoint x="1044" y="884.6399999999999" as="targetPoint" />
          </mxGeometry>
        </mxCell>
        <mxCell id="T4crK0wRB-NICKtuuCVh-134" value="&lt;font style=&quot;font-size: 9px;&quot;&gt;Response&lt;/font&gt;" style="edgeLabel;html=1;align=center;verticalAlign=middle;resizable=0;points=[];" vertex="1" connectable="0" parent="T4crK0wRB-NICKtuuCVh-133">
          <mxGeometry x="0.1015" relative="1" as="geometry">
            <mxPoint y="-1" as="offset" />
          </mxGeometry>
        </mxCell>
        <mxCell id="T4crK0wRB-NICKtuuCVh-135" value="User&lt;div&gt;Management&lt;/div&gt;" style="ellipse;whiteSpace=wrap;html=1;" vertex="1" parent="1">
          <mxGeometry x="947" y="1137" width="100" height="60" as="geometry" />
        </mxCell>
        <mxCell id="T4crK0wRB-NICKtuuCVh-136" style="edgeStyle=orthogonalEdgeStyle;rounded=0;orthogonalLoop=1;jettySize=auto;html=1;entryX=0.896;entryY=0.994;entryDx=0;entryDy=0;entryPerimeter=0;exitX=0;exitY=0.5;exitDx=0;exitDy=0;" edge="1" parent="1" source="T4crK0wRB-NICKtuuCVh-137" target="T4crK0wRB-NICKtuuCVh-127">
          <mxGeometry relative="1" as="geometry">
            <mxPoint x="834" y="897" as="targetPoint" />
            <mxPoint x="934" y="967" as="sourcePoint" />
            <Array as="points">
              <mxPoint x="844" y="967" />
              <mxPoint x="844" y="897" />
            </Array>
          </mxGeometry>
        </mxCell>
        <mxCell id="T4crK0wRB-NICKtuuCVh-137" value="Invoice&lt;div&gt;Management&lt;/div&gt;" style="ellipse;whiteSpace=wrap;html=1;" vertex="1" parent="1">
          <mxGeometry x="947" y="937" width="100" height="60" as="geometry" />
        </mxCell>
        <mxCell id="T4crK0wRB-NICKtuuCVh-138" value="Profile Management" style="ellipse;whiteSpace=wrap;html=1;" vertex="1" parent="1">
          <mxGeometry x="947" y="1037" width="100" height="60" as="geometry" />
        </mxCell>
        <mxCell id="T4crK0wRB-NICKtuuCVh-139" value="" style="endArrow=classic;html=1;rounded=0;exitX=0.932;exitY=1.024;exitDx=0;exitDy=0;exitPerimeter=0;entryX=0.013;entryY=0.378;entryDx=0;entryDy=0;entryPerimeter=0;" edge="1" parent="1" source="T4crK0wRB-NICKtuuCVh-127" target="T4crK0wRB-NICKtuuCVh-137">
          <mxGeometry width="50" height="50" relative="1" as="geometry">
            <mxPoint x="849.65" y="902" as="sourcePoint" />
            <mxPoint x="930" y="959.98" as="targetPoint" />
            <Array as="points">
              <mxPoint x="850" y="960" />
            </Array>
          </mxGeometry>
        </mxCell>
        <mxCell id="T4crK0wRB-NICKtuuCVh-140" style="edgeStyle=orthogonalEdgeStyle;rounded=0;orthogonalLoop=1;jettySize=auto;html=1;entryX=0.8;entryY=1;entryDx=0;entryDy=0;entryPerimeter=0;exitX=0;exitY=0.667;exitDx=0;exitDy=0;exitPerimeter=0;" edge="1" parent="1" source="T4crK0wRB-NICKtuuCVh-138">
          <mxGeometry relative="1" as="geometry">
            <mxPoint x="814" y="897" as="targetPoint" />
            <mxPoint x="934" y="1077.02" as="sourcePoint" />
          </mxGeometry>
        </mxCell>
        <mxCell id="T4crK0wRB-NICKtuuCVh-141" value="" style="endArrow=classic;html=1;rounded=0;exitX=0.9;exitY=1;exitDx=0;exitDy=0;exitPerimeter=0;entryX=0;entryY=0.5;entryDx=0;entryDy=0;" edge="1" parent="1" target="T4crK0wRB-NICKtuuCVh-138">
          <mxGeometry width="50" height="50" relative="1" as="geometry">
            <mxPoint x="820" y="897" as="sourcePoint" />
            <mxPoint x="910" y="1067" as="targetPoint" />
            <Array as="points">
              <mxPoint x="820" y="1067" />
            </Array>
          </mxGeometry>
        </mxCell>
        <mxCell id="T4crK0wRB-NICKtuuCVh-142" style="edgeStyle=orthogonalEdgeStyle;rounded=0;orthogonalLoop=1;jettySize=auto;html=1;entryX=0.47;entryY=0.993;entryDx=0;entryDy=0;entryPerimeter=0;exitX=0;exitY=0.5;exitDx=0;exitDy=0;" edge="1" parent="1" source="T4crK0wRB-NICKtuuCVh-135" target="T4crK0wRB-NICKtuuCVh-127">
          <mxGeometry relative="1" as="geometry">
            <mxPoint x="780" y="897" as="targetPoint" />
            <mxPoint x="942" y="1167" as="sourcePoint" />
            <Array as="points">
              <mxPoint x="781" y="1167" />
            </Array>
          </mxGeometry>
        </mxCell>
        <mxCell id="T4crK0wRB-NICKtuuCVh-143" value="" style="endArrow=classic;html=1;rounded=0;entryX=0.033;entryY=0.333;entryDx=0;entryDy=0;entryPerimeter=0;" edge="1" parent="1" target="T4crK0wRB-NICKtuuCVh-135">
          <mxGeometry width="50" height="50" relative="1" as="geometry">
            <mxPoint x="790" y="897" as="sourcePoint" />
            <mxPoint x="930" y="1157" as="targetPoint" />
            <Array as="points">
              <mxPoint x="790" y="1157" />
            </Array>
          </mxGeometry>
        </mxCell>
        <mxCell id="T4crK0wRB-NICKtuuCVh-145" value="&lt;font style=&quot;font-size: 9px;&quot;&gt;Add,edit,delete details&lt;/font&gt;" style="text;html=1;align=center;verticalAlign=middle;resizable=0;points=[];autosize=1;strokeColor=none;fillColor=none;" vertex="1" parent="1">
          <mxGeometry x="847" y="937" width="100" height="30" as="geometry" />
        </mxCell>
        <mxCell id="T4crK0wRB-NICKtuuCVh-146" value="&lt;font style=&quot;font-size: 10px;&quot;&gt;Response&lt;/font&gt;" style="text;html=1;align=center;verticalAlign=middle;resizable=0;points=[];autosize=1;strokeColor=none;fillColor=none;" vertex="1" parent="1">
          <mxGeometry x="865" y="957" width="60" height="30" as="geometry" />
        </mxCell>
        <mxCell id="T4crK0wRB-NICKtuuCVh-147" value="&lt;span style=&quot;font-size: 10px;&quot;&gt;Add,update,delete users&lt;/span&gt;" style="text;html=1;align=center;verticalAlign=middle;resizable=0;points=[];autosize=1;strokeColor=none;fillColor=none;" vertex="1" parent="1">
          <mxGeometry x="822" y="1040" width="120" height="30" as="geometry" />
        </mxCell>
        <mxCell id="T4crK0wRB-NICKtuuCVh-148" value="&lt;font style=&quot;font-size: 10px;&quot;&gt;Response&lt;/font&gt;" style="text;html=1;align=center;verticalAlign=middle;resizable=0;points=[];autosize=1;strokeColor=none;fillColor=none;" vertex="1" parent="1">
          <mxGeometry x="849" y="1070" width="60" height="30" as="geometry" />
        </mxCell>
        <mxCell id="T4crK0wRB-NICKtuuCVh-149" style="edgeStyle=orthogonalEdgeStyle;rounded=0;orthogonalLoop=1;jettySize=auto;html=1;entryX=0.47;entryY=0.993;entryDx=0;entryDy=0;entryPerimeter=0;exitX=0.036;exitY=0.683;exitDx=0;exitDy=0;exitPerimeter=0;" edge="1" parent="1" source="T4crK0wRB-NICKtuuCVh-151">
          <mxGeometry relative="1" as="geometry">
            <mxPoint x="748" y="897" as="targetPoint" />
            <mxPoint x="914" y="1167" as="sourcePoint" />
            <Array as="points">
              <mxPoint x="952" y="1272" />
              <mxPoint x="748" y="1272" />
            </Array>
          </mxGeometry>
        </mxCell>
        <mxCell id="T4crK0wRB-NICKtuuCVh-150" value="" style="endArrow=classic;html=1;rounded=0;entryX=0.008;entryY=0.534;entryDx=0;entryDy=0;entryPerimeter=0;" edge="1" parent="1" target="T4crK0wRB-NICKtuuCVh-151">
          <mxGeometry width="50" height="50" relative="1" as="geometry">
            <mxPoint x="757" y="897" as="sourcePoint" />
            <mxPoint x="944" y="1262" as="targetPoint" />
            <Array as="points">
              <mxPoint x="757" y="1157" />
              <mxPoint x="757" y="1252" />
              <mxPoint x="757" y="1262" />
              <mxPoint x="794" y="1262" />
              <mxPoint x="894" y="1262" />
              <mxPoint x="924" y="1262" />
            </Array>
          </mxGeometry>
        </mxCell>
        <mxCell id="T4crK0wRB-NICKtuuCVh-151" value="Dashboard&lt;div&gt;Features&lt;/div&gt;" style="ellipse;whiteSpace=wrap;html=1;" vertex="1" parent="1">
          <mxGeometry x="948" y="1230" width="100" height="60" as="geometry" />
        </mxCell>
        <mxCell id="T4crK0wRB-NICKtuuCVh-160" value="&lt;font style=&quot;font-size: 13px;&quot;&gt;Level 1&lt;/font&gt;" style="text;html=1;align=center;verticalAlign=middle;resizable=0;points=[];autosize=1;strokeColor=none;fillColor=none;" vertex="1" parent="1">
          <mxGeometry x="84.5" y="584" width="60" height="30" as="geometry" />
        </mxCell>
        <mxCell id="T4crK0wRB-NICKtuuCVh-166" style="edgeStyle=orthogonalEdgeStyle;rounded=0;orthogonalLoop=1;jettySize=auto;html=1;" edge="1" parent="1">
          <mxGeometry relative="1" as="geometry">
            <mxPoint x="623.5" y="798.8" as="targetPoint" />
            <mxPoint x="525.5" y="798.8" as="sourcePoint" />
            <Array as="points">
              <mxPoint x="553.5" y="798.8" />
              <mxPoint x="553.5" y="798.8" />
            </Array>
          </mxGeometry>
        </mxCell>
        <mxCell id="T4crK0wRB-NICKtuuCVh-167" style="edgeStyle=orthogonalEdgeStyle;rounded=0;orthogonalLoop=1;jettySize=auto;html=1;entryX=0.991;entryY=0.664;entryDx=0;entryDy=0;entryPerimeter=0;" edge="1" parent="1">
          <mxGeometry relative="1" as="geometry">
            <mxPoint x="525.5" y="818.8" as="targetPoint" />
            <mxPoint x="621.5" y="818.8" as="sourcePoint" />
            <Array as="points">
              <mxPoint x="571.5" y="818.8" />
              <mxPoint x="571.5" y="818.8" />
            </Array>
          </mxGeometry>
        </mxCell>
        <mxCell id="T4crK0wRB-NICKtuuCVh-168" style="edgeStyle=orthogonalEdgeStyle;rounded=0;orthogonalLoop=1;jettySize=auto;html=1;" edge="1" parent="1">
          <mxGeometry relative="1" as="geometry">
            <mxPoint x="623.5" y="898.8" as="targetPoint" />
            <mxPoint x="525.5" y="898.8" as="sourcePoint" />
            <Array as="points">
              <mxPoint x="553.5" y="898.8" />
              <mxPoint x="553.5" y="898.8" />
            </Array>
          </mxGeometry>
        </mxCell>
        <mxCell id="T4crK0wRB-NICKtuuCVh-169" style="edgeStyle=orthogonalEdgeStyle;rounded=0;orthogonalLoop=1;jettySize=auto;html=1;entryX=0.991;entryY=0.664;entryDx=0;entryDy=0;entryPerimeter=0;" edge="1" parent="1">
          <mxGeometry relative="1" as="geometry">
            <mxPoint x="525.5" y="918.8" as="targetPoint" />
            <mxPoint x="621.5" y="918.8" as="sourcePoint" />
            <Array as="points">
              <mxPoint x="571.5" y="918.8" />
              <mxPoint x="571.5" y="918.8" />
            </Array>
          </mxGeometry>
        </mxCell>
        <mxCell id="T4crK0wRB-NICKtuuCVh-170" style="edgeStyle=orthogonalEdgeStyle;rounded=0;orthogonalLoop=1;jettySize=auto;html=1;" edge="1" parent="1">
          <mxGeometry relative="1" as="geometry">
            <mxPoint x="624.5" y="998.8" as="targetPoint" />
            <mxPoint x="526.5" y="998.8" as="sourcePoint" />
            <Array as="points">
              <mxPoint x="554.5" y="998.8" />
              <mxPoint x="554.5" y="998.8" />
            </Array>
          </mxGeometry>
        </mxCell>
        <mxCell id="T4crK0wRB-NICKtuuCVh-171" style="edgeStyle=orthogonalEdgeStyle;rounded=0;orthogonalLoop=1;jettySize=auto;html=1;entryX=0.991;entryY=0.664;entryDx=0;entryDy=0;entryPerimeter=0;" edge="1" parent="1">
          <mxGeometry relative="1" as="geometry">
            <mxPoint x="525.5" y="1018.8" as="targetPoint" />
            <mxPoint x="621.5" y="1018.8" as="sourcePoint" />
            <Array as="points">
              <mxPoint x="571.5" y="1018.8" />
              <mxPoint x="571.5" y="1018.8" />
            </Array>
          </mxGeometry>
        </mxCell>
        <mxCell id="T4crK0wRB-NICKtuuCVh-172" style="edgeStyle=orthogonalEdgeStyle;rounded=0;orthogonalLoop=1;jettySize=auto;html=1;" edge="1" parent="1">
          <mxGeometry relative="1" as="geometry">
            <mxPoint x="624.5" y="1098.83" as="targetPoint" />
            <mxPoint x="526.5" y="1098.83" as="sourcePoint" />
            <Array as="points">
              <mxPoint x="554.5" y="1098.83" />
              <mxPoint x="554.5" y="1098.83" />
            </Array>
          </mxGeometry>
        </mxCell>
        <mxCell id="T4crK0wRB-NICKtuuCVh-173" style="edgeStyle=orthogonalEdgeStyle;rounded=0;orthogonalLoop=1;jettySize=auto;html=1;entryX=0.991;entryY=0.664;entryDx=0;entryDy=0;entryPerimeter=0;" edge="1" parent="1">
          <mxGeometry relative="1" as="geometry">
            <mxPoint x="526.5" y="1118.83" as="targetPoint" />
            <mxPoint x="622.5" y="1118.83" as="sourcePoint" />
            <Array as="points">
              <mxPoint x="572.5" y="1118.83" />
              <mxPoint x="572.5" y="1118.83" />
            </Array>
          </mxGeometry>
        </mxCell>
        <mxCell id="T4crK0wRB-NICKtuuCVh-174" style="edgeStyle=orthogonalEdgeStyle;rounded=0;orthogonalLoop=1;jettySize=auto;html=1;" edge="1" parent="1">
          <mxGeometry relative="1" as="geometry">
            <mxPoint x="625.5" y="1198.83" as="targetPoint" />
            <mxPoint x="527.5" y="1198.83" as="sourcePoint" />
            <Array as="points">
              <mxPoint x="555.5" y="1198.83" />
              <mxPoint x="555.5" y="1198.83" />
            </Array>
          </mxGeometry>
        </mxCell>
        <mxCell id="T4crK0wRB-NICKtuuCVh-175" style="edgeStyle=orthogonalEdgeStyle;rounded=0;orthogonalLoop=1;jettySize=auto;html=1;entryX=0.991;entryY=0.664;entryDx=0;entryDy=0;entryPerimeter=0;" edge="1" parent="1">
          <mxGeometry relative="1" as="geometry">
            <mxPoint x="527.5" y="1218.83" as="targetPoint" />
            <mxPoint x="623.5" y="1218.83" as="sourcePoint" />
            <Array as="points">
              <mxPoint x="573.5" y="1218.83" />
              <mxPoint x="573.5" y="1218.83" />
            </Array>
          </mxGeometry>
        </mxCell>
        <mxCell id="T4crK0wRB-NICKtuuCVh-177" style="edgeStyle=orthogonalEdgeStyle;rounded=0;orthogonalLoop=1;jettySize=auto;html=1;exitX=1;exitY=0.25;exitDx=0;exitDy=0;entryX=0.344;entryY=0.036;entryDx=0;entryDy=0;entryPerimeter=0;" edge="1" parent="1" source="T4crK0wRB-NICKtuuCVh-176" target="T4crK0wRB-NICKtuuCVh-178">
          <mxGeometry relative="1" as="geometry">
            <mxPoint x="240" y="1960" as="targetPoint" />
            <Array as="points">
              <mxPoint x="240" y="1825" />
              <mxPoint x="240" y="1940" />
            </Array>
          </mxGeometry>
        </mxCell>
        <mxCell id="T4crK0wRB-NICKtuuCVh-179" value="&lt;font size=&quot;1&quot;&gt;Login Credentials&lt;/font&gt;" style="edgeLabel;html=1;align=center;verticalAlign=middle;resizable=0;points=[];rotation=270;" vertex="1" connectable="0" parent="T4crK0wRB-NICKtuuCVh-177">
          <mxGeometry x="-0.1877" relative="1" as="geometry">
            <mxPoint x="-213" y="97" as="offset" />
          </mxGeometry>
        </mxCell>
        <mxCell id="T4crK0wRB-NICKtuuCVh-189" value="Req" style="edgeLabel;html=1;align=center;verticalAlign=middle;resizable=0;points=[];" vertex="1" connectable="0" parent="T4crK0wRB-NICKtuuCVh-177">
          <mxGeometry x="0.0173" relative="1" as="geometry">
            <mxPoint x="92" as="offset" />
          </mxGeometry>
        </mxCell>
        <mxCell id="T4crK0wRB-NICKtuuCVh-191" style="edgeStyle=orthogonalEdgeStyle;rounded=0;orthogonalLoop=1;jettySize=auto;html=1;entryX=0.404;entryY=0;entryDx=0;entryDy=0;entryPerimeter=0;exitX=0;exitY=0.88;exitDx=0;exitDy=0;exitPerimeter=0;" edge="1" parent="1" source="T4crK0wRB-NICKtuuCVh-176" target="T4crK0wRB-NICKtuuCVh-192">
          <mxGeometry relative="1" as="geometry">
            <mxPoint x="390" y="1960" as="targetPoint" />
            <mxPoint x="430" y="1930" as="sourcePoint" />
            <Array as="points">
              <mxPoint x="590" y="1860" />
              <mxPoint x="390" y="1860" />
            </Array>
          </mxGeometry>
        </mxCell>
        <mxCell id="T4crK0wRB-NICKtuuCVh-199" value="Create/ edit Invoice" style="edgeLabel;html=1;align=center;verticalAlign=middle;resizable=0;points=[];rotation=270;" vertex="1" connectable="0" parent="T4crK0wRB-NICKtuuCVh-191">
          <mxGeometry x="0.706" y="-1" relative="1" as="geometry">
            <mxPoint y="-15" as="offset" />
          </mxGeometry>
        </mxCell>
        <mxCell id="T4crK0wRB-NICKtuuCVh-220" style="edgeStyle=orthogonalEdgeStyle;rounded=0;orthogonalLoop=1;jettySize=auto;html=1;" edge="1" parent="1" source="T4crK0wRB-NICKtuuCVh-176">
          <mxGeometry relative="1" as="geometry">
            <mxPoint x="1000" y="2000" as="targetPoint" />
          </mxGeometry>
        </mxCell>
        <mxCell id="T4crK0wRB-NICKtuuCVh-226" value="Manage Personal/Bank Details" style="edgeLabel;html=1;align=center;verticalAlign=middle;resizable=0;points=[];" vertex="1" connectable="0" parent="T4crK0wRB-NICKtuuCVh-220">
          <mxGeometry x="0.6215" relative="1" as="geometry">
            <mxPoint as="offset" />
          </mxGeometry>
        </mxCell>
        <mxCell id="T4crK0wRB-NICKtuuCVh-221" style="edgeStyle=orthogonalEdgeStyle;rounded=0;orthogonalLoop=1;jettySize=auto;html=1;" edge="1" parent="1" source="T4crK0wRB-NICKtuuCVh-176" target="T4crK0wRB-NICKtuuCVh-223">
          <mxGeometry relative="1" as="geometry">
            <mxPoint x="1270" y="1990" as="targetPoint" />
            <Array as="points">
              <mxPoint x="1270" y="1820" />
            </Array>
          </mxGeometry>
        </mxCell>
        <mxCell id="T4crK0wRB-NICKtuuCVh-227" value="Add/verify Accountant" style="edgeLabel;html=1;align=center;verticalAlign=middle;resizable=0;points=[];" vertex="1" connectable="0" parent="T4crK0wRB-NICKtuuCVh-221">
          <mxGeometry x="0.7696" y="-2" relative="1" as="geometry">
            <mxPoint as="offset" />
          </mxGeometry>
        </mxCell>
        <mxCell id="T4crK0wRB-NICKtuuCVh-176" value="Admin" style="rounded=0;whiteSpace=wrap;html=1;" vertex="1" parent="1">
          <mxGeometry x="590" y="1810" width="120" height="60" as="geometry" />
        </mxCell>
        <mxCell id="T4crK0wRB-NICKtuuCVh-184" style="edgeStyle=orthogonalEdgeStyle;rounded=0;orthogonalLoop=1;jettySize=auto;html=1;entryX=0;entryY=0.5;entryDx=0;entryDy=0;" edge="1" parent="1" source="T4crK0wRB-NICKtuuCVh-178" target="T4crK0wRB-NICKtuuCVh-176">
          <mxGeometry relative="1" as="geometry">
            <mxPoint x="560" y="1674.2857142857142" as="targetPoint" />
            <Array as="points">
              <mxPoint x="259" y="1840" />
            </Array>
          </mxGeometry>
        </mxCell>
        <mxCell id="T4crK0wRB-NICKtuuCVh-186" value="Auth Token" style="edgeLabel;html=1;align=center;verticalAlign=middle;resizable=0;points=[];rotation=270;" vertex="1" connectable="0" parent="T4crK0wRB-NICKtuuCVh-184">
          <mxGeometry x="0.3737" relative="1" as="geometry">
            <mxPoint x="-180" y="90" as="offset" />
          </mxGeometry>
        </mxCell>
        <mxCell id="T4crK0wRB-NICKtuuCVh-190" value="Res" style="edgeLabel;html=1;align=center;verticalAlign=middle;resizable=0;points=[];" vertex="1" connectable="0" parent="T4crK0wRB-NICKtuuCVh-184">
          <mxGeometry x="0.1476" y="-2" relative="1" as="geometry">
            <mxPoint x="92" as="offset" />
          </mxGeometry>
        </mxCell>
        <mxCell id="T4crK0wRB-NICKtuuCVh-178" value="Authentication&lt;div&gt;System&lt;/div&gt;" style="ellipse;whiteSpace=wrap;html=1;" vertex="1" parent="1">
          <mxGeometry x="199" y="1990" width="120" height="80" as="geometry" />
        </mxCell>
        <mxCell id="T4crK0wRB-NICKtuuCVh-203" style="edgeStyle=orthogonalEdgeStyle;rounded=0;orthogonalLoop=1;jettySize=auto;html=1;entryX=0.82;entryY=0.914;entryDx=0;entryDy=0;entryPerimeter=0;" edge="1" parent="1" source="T4crK0wRB-NICKtuuCVh-183" target="T4crK0wRB-NICKtuuCVh-192">
          <mxGeometry relative="1" as="geometry">
            <mxPoint x="440" y="2080" as="targetPoint" />
            <Array as="points">
              <mxPoint x="440" y="2120" />
              <mxPoint x="440" y="2120" />
            </Array>
          </mxGeometry>
        </mxCell>
        <mxCell id="T4crK0wRB-NICKtuuCVh-205" value="&lt;font style=&quot;font-size: 9px;&quot;&gt;Retrieve Invoice&lt;/font&gt;" style="edgeLabel;html=1;align=center;verticalAlign=middle;resizable=0;points=[];" vertex="1" connectable="0" parent="T4crK0wRB-NICKtuuCVh-203">
          <mxGeometry x="-0.0564" y="-1" relative="1" as="geometry">
            <mxPoint as="offset" />
          </mxGeometry>
        </mxCell>
        <mxCell id="T4crK0wRB-NICKtuuCVh-183" value="Invoice&lt;div&gt;Database&lt;/div&gt;" style="shape=cube;whiteSpace=wrap;html=1;boundedLbl=1;backgroundOutline=1;darkOpacity=0.05;darkOpacity2=0.1;" vertex="1" parent="1">
          <mxGeometry x="341.5" y="2130" width="120" height="70" as="geometry" />
        </mxCell>
        <mxCell id="T4crK0wRB-NICKtuuCVh-195" style="edgeStyle=orthogonalEdgeStyle;rounded=0;orthogonalLoop=1;jettySize=auto;html=1;entryX=0.087;entryY=1.052;entryDx=0;entryDy=0;entryPerimeter=0;" edge="1" parent="1" target="T4crK0wRB-NICKtuuCVh-176">
          <mxGeometry relative="1" as="geometry">
            <mxPoint x="620.02" y="1890" as="targetPoint" />
            <mxPoint x="600.02" y="2130" as="sourcePoint" />
            <Array as="points">
              <mxPoint x="600" y="1890" />
            </Array>
          </mxGeometry>
        </mxCell>
        <mxCell id="T4crK0wRB-NICKtuuCVh-209" value="Res" style="edgeLabel;html=1;align=center;verticalAlign=middle;resizable=0;points=[];" vertex="1" connectable="0" parent="T4crK0wRB-NICKtuuCVh-195">
          <mxGeometry x="0.3461" relative="1" as="geometry">
            <mxPoint y="-38" as="offset" />
          </mxGeometry>
        </mxCell>
        <mxCell id="T4crK0wRB-NICKtuuCVh-210" value="PDF/Print/Email" style="edgeLabel;html=1;align=center;verticalAlign=middle;resizable=0;points=[];" vertex="1" connectable="0" parent="T4crK0wRB-NICKtuuCVh-195">
          <mxGeometry x="-0.0007" relative="1" as="geometry">
            <mxPoint as="offset" />
          </mxGeometry>
        </mxCell>
        <mxCell id="T4crK0wRB-NICKtuuCVh-206" style="edgeStyle=orthogonalEdgeStyle;rounded=0;orthogonalLoop=1;jettySize=auto;html=1;" edge="1" parent="1" source="T4crK0wRB-NICKtuuCVh-192">
          <mxGeometry relative="1" as="geometry">
            <mxPoint x="530" y="2120" as="targetPoint" />
          </mxGeometry>
        </mxCell>
        <mxCell id="T4crK0wRB-NICKtuuCVh-208" value="Generate Document" style="edgeLabel;html=1;align=center;verticalAlign=middle;resizable=0;points=[];" vertex="1" connectable="0" parent="T4crK0wRB-NICKtuuCVh-206">
          <mxGeometry x="0.3343" y="-2" relative="1" as="geometry">
            <mxPoint as="offset" />
          </mxGeometry>
        </mxCell>
        <mxCell id="T4crK0wRB-NICKtuuCVh-192" value="Invoice Generation" style="ellipse;whiteSpace=wrap;html=1;" vertex="1" parent="1">
          <mxGeometry x="341.5" y="1990" width="120" height="80" as="geometry" />
        </mxCell>
        <mxCell id="T4crK0wRB-NICKtuuCVh-197" value="&lt;font style=&quot;font-size: 10px;&quot;&gt;Res&lt;/font&gt;" style="text;html=1;align=center;verticalAlign=middle;resizable=0;points=[];autosize=1;strokeColor=none;fillColor=none;" vertex="1" parent="1">
          <mxGeometry x="502" y="1844" width="40" height="30" as="geometry" />
        </mxCell>
        <mxCell id="T4crK0wRB-NICKtuuCVh-202" style="edgeStyle=orthogonalEdgeStyle;rounded=0;orthogonalLoop=1;jettySize=auto;html=1;entryX=0.238;entryY=0;entryDx=0;entryDy=0;entryPerimeter=0;" edge="1" parent="1" source="T4crK0wRB-NICKtuuCVh-192" target="T4crK0wRB-NICKtuuCVh-183">
          <mxGeometry relative="1" as="geometry">
            <Array as="points">
              <mxPoint x="370" y="2080" />
              <mxPoint x="370" y="2080" />
            </Array>
          </mxGeometry>
        </mxCell>
        <mxCell id="T4crK0wRB-NICKtuuCVh-204" value="&lt;font style=&quot;font-size: 9px;&quot;&gt;Store Invoice&lt;/font&gt;" style="edgeLabel;html=1;align=center;verticalAlign=middle;resizable=0;points=[];" vertex="1" connectable="0" parent="T4crK0wRB-NICKtuuCVh-202">
          <mxGeometry x="-0.1372" relative="1" as="geometry">
            <mxPoint as="offset" />
          </mxGeometry>
        </mxCell>
        <mxCell id="T4crK0wRB-NICKtuuCVh-207" value="Export System" style="rounded=0;whiteSpace=wrap;html=1;" vertex="1" parent="1">
          <mxGeometry x="514" y="2120" width="120" height="60" as="geometry" />
        </mxCell>
        <mxCell id="T4crK0wRB-NICKtuuCVh-212" value="" style="edgeStyle=orthogonalEdgeStyle;rounded=0;orthogonalLoop=1;jettySize=auto;html=1;exitX=1;exitY=0.75;exitDx=0;exitDy=0;" edge="1" parent="1" source="T4crK0wRB-NICKtuuCVh-176">
          <mxGeometry relative="1" as="geometry">
            <mxPoint x="795" y="2000" as="targetPoint" />
            <mxPoint x="765" y="1860" as="sourcePoint" />
            <Array as="points">
              <mxPoint x="710" y="1860" />
              <mxPoint x="795" y="1860" />
            </Array>
          </mxGeometry>
        </mxCell>
        <mxCell id="T4crK0wRB-NICKtuuCVh-213" value="Add/edit/verify Org" style="edgeLabel;html=1;align=center;verticalAlign=middle;resizable=0;points=[];" vertex="1" connectable="0" parent="T4crK0wRB-NICKtuuCVh-212">
          <mxGeometry x="0.1163" y="-2" relative="1" as="geometry">
            <mxPoint as="offset" />
          </mxGeometry>
        </mxCell>
        <mxCell id="T4crK0wRB-NICKtuuCVh-211" value="Organisation Management" style="ellipse;whiteSpace=wrap;html=1;" vertex="1" parent="1">
          <mxGeometry x="734" y="2000" width="120" height="80" as="geometry" />
        </mxCell>
        <mxCell id="T4crK0wRB-NICKtuuCVh-214" value="Organisation Database" style="shape=cube;whiteSpace=wrap;html=1;boundedLbl=1;backgroundOutline=1;darkOpacity=0.05;darkOpacity2=0.1;" vertex="1" parent="1">
          <mxGeometry x="757" y="2140" width="120" height="70" as="geometry" />
        </mxCell>
        <mxCell id="T4crK0wRB-NICKtuuCVh-215" style="edgeStyle=orthogonalEdgeStyle;rounded=0;orthogonalLoop=1;jettySize=auto;html=1;entryX=0.147;entryY=0.038;entryDx=0;entryDy=0;entryPerimeter=0;" edge="1" parent="1" target="T4crK0wRB-NICKtuuCVh-214">
          <mxGeometry relative="1" as="geometry">
            <mxPoint x="774.608695652174" y="2077.6191127959314" as="sourcePoint" />
            <Array as="points">
              <mxPoint x="775" y="2105" />
            </Array>
          </mxGeometry>
        </mxCell>
        <mxCell id="T4crK0wRB-NICKtuuCVh-219" value="&lt;font style=&quot;font-size: 10px;&quot;&gt;Store&lt;/font&gt;&lt;div style=&quot;font-size: 10px;&quot;&gt;&lt;font style=&quot;font-size: 10px;&quot;&gt;org data&lt;/font&gt;&lt;/div&gt;" style="edgeLabel;html=1;align=center;verticalAlign=middle;resizable=0;points=[];" vertex="1" connectable="0" parent="T4crK0wRB-NICKtuuCVh-215">
          <mxGeometry x="-0.2548" relative="1" as="geometry">
            <mxPoint as="offset" />
          </mxGeometry>
        </mxCell>
        <mxCell id="T4crK0wRB-NICKtuuCVh-217" style="edgeStyle=orthogonalEdgeStyle;rounded=0;orthogonalLoop=1;jettySize=auto;html=1;" edge="1" parent="1" source="T4crK0wRB-NICKtuuCVh-214">
          <mxGeometry relative="1" as="geometry">
            <mxPoint x="834.9565217391305" y="2069.840139786017" as="targetPoint" />
            <Array as="points">
              <mxPoint x="835" y="2100" />
              <mxPoint x="835" y="2100" />
            </Array>
          </mxGeometry>
        </mxCell>
        <mxCell id="T4crK0wRB-NICKtuuCVh-218" value="&lt;font style=&quot;font-size: 10px;&quot;&gt;&amp;nbsp; &amp;nbsp; Retrieve&lt;/font&gt;&lt;div style=&quot;font-size: 10px;&quot;&gt;&lt;font style=&quot;font-size: 10px;&quot;&gt;Org Info&lt;/font&gt;&lt;/div&gt;" style="edgeLabel;html=1;align=center;verticalAlign=middle;resizable=0;points=[];" vertex="1" connectable="0" parent="T4crK0wRB-NICKtuuCVh-217">
          <mxGeometry x="0.0805" y="3" relative="1" as="geometry">
            <mxPoint as="offset" />
          </mxGeometry>
        </mxCell>
        <mxCell id="T4crK0wRB-NICKtuuCVh-229" style="edgeStyle=orthogonalEdgeStyle;rounded=0;orthogonalLoop=1;jettySize=auto;html=1;entryX=0;entryY=0;entryDx=0;entryDy=25;entryPerimeter=0;" edge="1" parent="1" source="T4crK0wRB-NICKtuuCVh-222" target="T4crK0wRB-NICKtuuCVh-228">
          <mxGeometry relative="1" as="geometry">
            <mxPoint x="1020.0000000000002" y="2240" as="targetPoint" />
            <Array as="points">
              <mxPoint x="998" y="2165" />
            </Array>
          </mxGeometry>
        </mxCell>
        <mxCell id="T4crK0wRB-NICKtuuCVh-230" value="Store Profile" style="edgeLabel;html=1;align=center;verticalAlign=middle;resizable=0;points=[];" vertex="1" connectable="0" parent="T4crK0wRB-NICKtuuCVh-229">
          <mxGeometry x="0.136" relative="1" as="geometry">
            <mxPoint as="offset" />
          </mxGeometry>
        </mxCell>
        <mxCell id="T4crK0wRB-NICKtuuCVh-222" value="Profile Management" style="ellipse;whiteSpace=wrap;html=1;" vertex="1" parent="1">
          <mxGeometry x="938" y="2000" width="120" height="80" as="geometry" />
        </mxCell>
        <mxCell id="T4crK0wRB-NICKtuuCVh-223" value="Accountant Management" style="ellipse;whiteSpace=wrap;html=1;" vertex="1" parent="1">
          <mxGeometry x="1210" y="2000" width="120" height="80" as="geometry" />
        </mxCell>
        <mxCell id="T4crK0wRB-NICKtuuCVh-235" style="edgeStyle=orthogonalEdgeStyle;rounded=0;orthogonalLoop=1;jettySize=auto;html=1;" edge="1" parent="1" source="T4crK0wRB-NICKtuuCVh-228">
          <mxGeometry relative="1" as="geometry">
            <mxPoint x="1060" y="2040" as="targetPoint" />
            <Array as="points">
              <mxPoint x="1150" y="2040" />
            </Array>
          </mxGeometry>
        </mxCell>
        <mxCell id="T4crK0wRB-NICKtuuCVh-236" value="Retrieve Profile" style="edgeLabel;html=1;align=center;verticalAlign=middle;resizable=0;points=[];" vertex="1" connectable="0" parent="T4crK0wRB-NICKtuuCVh-235">
          <mxGeometry x="-0.459" y="-1" relative="1" as="geometry">
            <mxPoint as="offset" />
          </mxGeometry>
        </mxCell>
        <mxCell id="T4crK0wRB-NICKtuuCVh-228" value="Organisation Database" style="shape=cube;whiteSpace=wrap;html=1;boundedLbl=1;backgroundOutline=1;darkOpacity=0.05;darkOpacity2=0.1;" vertex="1" parent="1">
          <mxGeometry x="1090" y="2140" width="120" height="70" as="geometry" />
        </mxCell>
        <mxCell id="T4crK0wRB-NICKtuuCVh-233" style="edgeStyle=orthogonalEdgeStyle;rounded=0;orthogonalLoop=1;jettySize=auto;html=1;entryX=1.009;entryY=0.495;entryDx=0;entryDy=0;entryPerimeter=0;exitX=0.342;exitY=0.982;exitDx=0;exitDy=0;exitPerimeter=0;" edge="1" parent="1" source="T4crK0wRB-NICKtuuCVh-223" target="T4crK0wRB-NICKtuuCVh-228">
          <mxGeometry relative="1" as="geometry">
            <mxPoint x="1261.72" y="2077.97" as="sourcePoint" />
            <mxPoint x="1150" y="2139.9999999999995" as="targetPoint" />
            <Array as="points">
              <mxPoint x="1251" y="2175" />
              <mxPoint x="1220" y="2175" />
            </Array>
          </mxGeometry>
        </mxCell>
        <mxCell id="T4crK0wRB-NICKtuuCVh-234" value="&lt;font style=&quot;font-size: 10px;&quot;&gt;Store Accountant&lt;/font&gt;" style="edgeLabel;html=1;align=center;verticalAlign=middle;resizable=0;points=[];" vertex="1" connectable="0" parent="T4crK0wRB-NICKtuuCVh-233">
          <mxGeometry x="0.0253" y="-1" relative="1" as="geometry">
            <mxPoint y="-19" as="offset" />
          </mxGeometry>
        </mxCell>
      </root>
    </mxGraphModel>
  </diagram>
</mxfile>
